<?xml version="1.0" encoding="utf-8"?>
<!-- Generator: Adobe Illustrator 15.0.0, SVG Export Plug-In . SVG Version: 6.00 Build 0)  -->
<!DOCTYPE svg PUBLIC "-//W3C//DTD SVG 1.1//EN" "http://www.w3.org/Graphics/SVG/1.1/DTD/svg11.dtd">
<svg version="1.1"  xmlns="http://www.w3.org/2000/svg" xmlns:xlink="http://www.w3.org/1999/xlink" x="0px" y="0px"
	 width="48px" height="48px" viewBox="0 0 48 48" enable-background="new 0 0 48 48" xml:space="preserve">
<rect x="4" y="33" fill="#7CB342" width="40" height="8"/>
<path fill="#A1887F" d="M20,33c0,0,9-19.999,12-20s12,20,12,20H20z"/>
<path fill="#795548" d="M4,33C4,33,15,7.001,18,7s14,26,14,26H4z"/>
<path fill="#7CB342" d="M44,33H4c0,0,4-2,20-2S44,33,44,33z"/>
<path fill="#9CCC65" d="M44,39v2H4v-2c0,0,6-3,20-3S44,39,44,39z"/>
</svg>
